<svg id="visual" viewBox="0 0 960 300" width="960" height="300" xmlns="http://www.w3.org/2000/svg" xmlns:xlink="http://www.w3.org/1999/xlink" version="1.1"><path d="M0 72L12.3 69.8C24.7 67.7 49.3 63.3 74 61.7C98.7 60 123.3 61 148 60.2C172.7 59.3 197.3 56.7 221.8 58.3C246.3 60 270.7 66 295.2 67C319.7 68 344.3 64 369 60.5C393.7 57 418.3 54 443 56.2C467.7 58.3 492.3 65.7 517 69C541.7 72.3 566.3 71.7 591 71.2C615.7 70.7 640.3 70.3 664.8 66.8C689.3 63.3 713.7 56.7 738.2 55.7C762.7 54.7 787.3 59.3 812 62.3C836.7 65.3 861.3 66.7 886 67.8C910.7 69 935.3 70 947.7 70.5L960 71L960 0L947.7 0C935.3 0 910.7 0 886 0C861.3 0 836.7 0 812 0C787.3 0 762.7 0 738.2 0C713.7 0 689.3 0 664.8 0C640.3 0 615.7 0 591 0C566.3 0 541.7 0 517 0C492.3 0 467.7 0 443 0C418.3 0 393.7 0 369 0C344.3 0 319.7 0 295.2 0C270.7 0 246.3 0 221.8 0C197.3 0 172.7 0 148 0C123.3 0 98.7 0 74 0C49.3 0 24.7 0 12.3 0L0 0Z" fill="#746695"></path><path d="M0 40L12.3 42.8C24.7 45.7 49.3 51.3 74 50.5C98.7 49.7 123.3 42.3 148 40C172.7 37.7 197.3 40.3 221.8 40.5C246.3 40.7 270.7 38.3 295.2 37.5C319.7 36.7 344.3 37.3 369 38.7C393.7 40 418.3 42 443 44.8C467.7 47.7 492.3 51.3 517 53C541.7 54.7 566.3 54.3 591 54.5C615.7 54.7 640.3 55.3 664.8 52.5C689.3 49.7 713.7 43.3 738.2 43.3C762.7 43.3 787.3 49.7 812 53.2C836.7 56.7 861.3 57.3 886 56C910.7 54.7 935.3 51.3 947.7 49.7L960 48L960 0L947.7 0C935.3 0 910.7 0 886 0C861.3 0 836.7 0 812 0C787.3 0 762.7 0 738.2 0C713.7 0 689.3 0 664.8 0C640.3 0 615.7 0 591 0C566.3 0 541.7 0 517 0C492.3 0 467.7 0 443 0C418.3 0 393.7 0 369 0C344.3 0 319.7 0 295.2 0C270.7 0 246.3 0 221.8 0C197.3 0 172.7 0 148 0C123.3 0 98.7 0 74 0C49.3 0 24.7 0 12.3 0L0 0Z" fill="#5b4b7f"></path><path d="M0 33L12.3 31C24.7 29 49.3 25 74 23.7C98.7 22.3 123.3 23.7 148 27.5C172.7 31.3 197.3 37.7 221.8 40C246.3 42.3 270.7 40.7 295.2 40.3C319.7 40 344.3 41 369 39.5C393.7 38 418.3 34 443 33C467.7 32 492.3 34 517 36.3C541.7 38.7 566.3 41.3 591 42.3C615.7 43.3 640.3 42.7 664.8 39.8C689.3 37 713.7 32 738.2 31C762.7 30 787.3 33 812 34.5C836.7 36 861.3 36 886 37.5C910.7 39 935.3 42 947.7 43.5L960 45L960 0L947.7 0C935.3 0 910.7 0 886 0C861.3 0 836.7 0 812 0C787.3 0 762.7 0 738.2 0C713.7 0 689.3 0 664.8 0C640.3 0 615.7 0 591 0C566.3 0 541.7 0 517 0C492.3 0 467.7 0 443 0C418.3 0 393.7 0 369 0C344.3 0 319.7 0 295.2 0C270.7 0 246.3 0 221.8 0C197.3 0 172.7 0 148 0C123.3 0 98.7 0 74 0C49.3 0 24.7 0 12.3 0L0 0Z" fill="#47396a"></path><path d="M0 13L12.3 12.3C24.7 11.7 49.3 10.3 74 10.3C98.7 10.3 123.3 11.7 148 14.7C172.7 17.7 197.3 22.3 221.8 24.3C246.3 26.3 270.7 25.7 295.2 22.7C319.7 19.7 344.3 14.3 369 11.2C393.7 8 418.3 7 443 9.7C467.7 12.3 492.3 18.7 517 22.3C541.7 26 566.3 27 591 27C615.7 27 640.3 26 664.8 24.8C689.3 23.7 713.7 22.3 738.2 21.5C762.7 20.7 787.3 20.3 812 19.2C836.7 18 861.3 16 886 14.8C910.7 13.7 935.3 13.3 947.7 13.2L960 13L960 0L947.7 0C935.3 0 910.7 0 886 0C861.3 0 836.7 0 812 0C787.3 0 762.7 0 738.2 0C713.7 0 689.3 0 664.8 0C640.3 0 615.7 0 591 0C566.3 0 541.7 0 517 0C492.3 0 467.7 0 443 0C418.3 0 393.7 0 369 0C344.3 0 319.7 0 295.2 0C270.7 0 246.3 0 221.8 0C197.3 0 172.7 0 148 0C123.3 0 98.7 0 74 0C49.3 0 24.7 0 12.3 0L0 0Z" fill="#392e55"></path></svg>