<svg id="visual" viewBox="0 0 900 600" width="900" height="600" xmlns="http://www.w3.org/2000/svg" xmlns:xlink="http://www.w3.org/1999/xlink" version="1.1"><g><g transform="translate(71 171)"><path d="M0 -80.1L69.4 -40.1L69.4 40.1L0 80.1L-69.4 40.1L-69.4 -40.1Z" fill="#392e55"></path></g><g transform="translate(373 579)"><path d="M0 -52L45 -26L45 26L0 52L-45 26L-45 -26Z" fill="#392e55"></path></g><g transform="translate(375 104)"><path d="M0 -32L27.7 -16L27.7 16L0 32L-27.7 16L-27.7 -16Z" fill="#392e55"></path></g><g transform="translate(675 467)"><path d="M0 -68L58.9 -34L58.9 34L0 68L-58.9 34L-58.9 -34Z" fill="#392e55"></path></g><g transform="translate(533 199)"><path d="M0 -70L60.6 -35L60.6 35L0 70L-60.6 35L-60.6 -35Z" fill="#392e55"></path></g><g transform="translate(97 454)"><path d="M0 -64L55.4 -32L55.4 32L0 64L-55.4 32L-55.4 -32Z" fill="#392e55"></path></g><g transform="translate(425 380)"><path d="M0 -79L68.4 -39.5L68.4 39.5L0 79L-68.4 39.5L-68.4 -39.5Z" fill="#392e55"></path></g><g transform="translate(779 246)"><path d="M0 -42L36.4 -21L36.4 21L0 42L-36.4 21L-36.4 -21Z" fill="#392e55"></path></g></g></svg>