<svg id="visual" viewBox="0 0 900 600" width="900" height="600" xmlns="http://www.w3.org/2000/svg" xmlns:xlink="http://www.w3.org/1999/xlink" version="1.1"><g><g transform="translate(63 217)"><path d="M0 -97.5L84.4 -48.7L84.4 48.7L0 97.5L-84.4 48.7L-84.4 -48.7Z" fill="#392e55"></path></g><g transform="translate(805 86)"><path d="M0 -87L75.3 -43.5L75.3 43.5L0 87L-75.3 43.5L-75.3 -43.5Z" fill="#392e55"></path></g><g transform="translate(91 17)"><path d="M0 -73L63.2 -36.5L63.2 36.5L0 73L-63.2 36.5L-63.2 -36.5Z" fill="#392e55"></path></g><g transform="translate(487 80)"><path d="M0 -69L59.8 -34.5L59.8 34.5L0 69L-59.8 34.5L-59.8 -34.5Z" fill="#392e55"></path></g><g transform="translate(423 339)"><path d="M0 -67L58 -33.5L58 33.5L0 67L-58 33.5L-58 -33.5Z" fill="#392e55"></path></g><g transform="translate(852 276)"><path d="M0 -77L66.7 -38.5L66.7 38.5L0 77L-66.7 38.5L-66.7 -38.5Z" fill="#392e55"></path></g></g></svg>