<svg id="visual" viewBox="0 0 900 600" width="900" height="600" xmlns="http://www.w3.org/2000/svg" xmlns:xlink="http://www.w3.org/1999/xlink" version="1.1"><g><g transform="translate(829 364)"><path d="M0 -97.5L84.4 -48.7L84.4 48.7L0 97.5L-84.4 48.7L-84.4 -48.7Z" fill="#392e55"></path></g><g transform="translate(519 170)"><path d="M0 -81L70.1 -40.5L70.1 40.5L0 81L-70.1 40.5L-70.1 -40.5Z" fill="#392e55"></path></g><g transform="translate(234 40)"><path d="M0 -67L58 -33.5L58 33.5L0 67L-58 33.5L-58 -33.5Z" fill="#392e55"></path></g><g transform="translate(755 85)"><path d="M0 -68L58.9 -34L58.9 34L0 68L-58.9 34L-58.9 -34Z" fill="#392e55"></path></g><g transform="translate(218 468)"><path d="M0 -61L52.8 -30.5L52.8 30.5L0 61L-52.8 30.5L-52.8 -30.5Z" fill="#392e55"></path></g><g transform="translate(49 152)"><path d="M0 -83L71.9 -41.5L71.9 41.5L0 83L-71.9 41.5L-71.9 -41.5Z" fill="#392e55"></path></g></g></svg>